<svg id="visual" viewBox="0 0 900 600" width="900" height="600" xmlns="http://www.w3.org/2000/svg" xmlns:xlink="http://www.w3.org/1999/xlink" version="1.1"><rect x="0" y="0" width="900" height="600" fill="#113f67"></rect><path d="M0 488L13.7 491.3C27.3 494.7 54.7 501.3 82 500.3C109.3 499.3 136.7 490.7 163.8 488.8C191 487 218 492 245.2 503.3C272.3 514.7 299.7 532.3 327 527.2C354.3 522 381.7 494 409 494.3C436.3 494.7 463.7 523.3 491 537.8C518.3 552.3 545.7 552.7 573 552.2C600.3 551.7 627.7 550.3 654.8 545.5C682 540.7 709 532.3 736.2 523.3C763.3 514.3 790.7 504.7 818 508C845.3 511.3 872.7 527.7 886.3 535.8L900 544L900 601L886.3 601C872.7 601 845.3 601 818 601C790.7 601 763.3 601 736.2 601C709 601 682 601 654.8 601C627.7 601 600.3 601 573 601C545.7 601 518.3 601 491 601C463.7 601 436.3 601 409 601C381.7 601 354.3 601 327 601C299.7 601 272.3 601 245.2 601C218 601 191 601 163.8 601C136.7 601 109.3 601 82 601C54.7 601 27.3 601 13.7 601L0 601Z" fill="#fff" stroke-linecap="round" stroke-linejoin="miter"></path></svg>